<svg xmlns="http://www.w3.org/2000/svg" viewBox="0 0 246.32 247.95"><title>jac자산 1</title><g id="레이어_2" data-name="레이어 2"><g id="레이어_1-2" data-name="레이어 1"><path d="M137.49,28.7c7.54-5.55,12.3-9.17,12.81-12.83.35-2.52-.82-4.31-3.39-4.67-1.85-.26-3.56.75-5,2l-2.09-2.71c2.52-2.06,4.9-3.11,8.17-2.66,4.58.63,7.17,3.95,6.56,8.4-.59,4.26-5.14,8.09-10.61,12.42,1.29.05,2.88.15,4.06.31l5.86.81-.51,3.68-16.17-2.24Z" transform="translate(-9.1 -7.73)" style="fill:#231815"/><path d="M159.23,22.34c2.58-7.75,7-10.8,11.72-9.22s6.43,6.68,3.85,14.41-7,11-11.78,9.41S156.64,30.09,159.23,22.34Zm11.61,3.87c2.16-6.49,1.24-9.09-1-9.83s-4.51.79-6.67,7.28-1.31,9.28.91,10S168.67,32.7,170.84,26.21Z" transform="translate(-9.1 -7.73)" style="fill:#231815"/><path d="M173.9,37.63c9-2.45,14.78-4.11,16.57-7.34,1.23-2.23.79-4.33-1.48-5.58-1.64-.91-3.59-.59-5.42.05l-1-3.28c3.08-1,5.69-1.14,8.57.46,4,2.24,5.26,6.27,3.09,10.19-2.08,3.77-7.71,5.7-14.36,7.77,1.17.51,2.63,1.18,3.66,1.75l5.18,2.87L187,47.76l-14.28-7.91Z" transform="translate(-9.1 -7.73)" style="fill:#231815"/><path d="M192,47l4.17,3.44,10.09-12.25-3.45-2.84,1.75-2.12a15.59,15.59,0,0,0,5.57,2l2.53,2.08L199.52,53.22l3.68,3L200.93,59l-11.24-9.25Z" transform="translate(-9.1 -7.73)" style="fill:#231815"/><path d="M217.49,58.85c6.61-4.81,11.94-4.74,14.89-.68s1.35,9.16-5.24,14-12.1,4.86-15,.8S210.88,63.65,217.49,58.85Zm7.19,9.89c5.53-4,6.3-6.66,4.92-8.55s-4.12-2-9.65,2-6.46,6.78-5.08,8.67S219.15,72.76,224.68,68.74Z" transform="translate(-9.1 -7.73)" style="fill:#231815"/><path d="M210.17,81.92l3.26-.83a5.28,5.28,0,0,0,.51,1.56c.78,1.47,2,1.34,3.94.32l17.38-9.27,2.06,3.86L220,86.8c-3.49,1.86-6.78,1.92-8.86-2A8.32,8.32,0,0,1,210.17,81.92Zm29.92-11.37a2.72,2.72,0,1,1-.91,3.55A2.51,2.51,0,0,1,240.09,70.55Z" transform="translate(-9.1 -7.73)" style="fill:#231815"/><path d="M231.45,86.12c5.85-2.1,10.66.67,12.23,5s-.38,9.57-6.23,11.67-10.63-.68-12.2-5.06S225.63,88.21,231.45,86.12Zm4.48,12.47c3.52-1.26,5.31-3.64,4.38-6.22s-3.82-3.28-7.34-2-5.28,3.64-4.36,6.22S232.41,99.86,235.93,98.59Z" transform="translate(-9.1 -7.73)" style="fill:#231815"/><path d="M245.28,104.62c1.59,1.81,3.18,2.56,5.35,2.1l2.78-.89L251.57,108a2.59,2.59,0,0,1-1.08-1.57,2.32,2.32,0,0,1,1.79-2.91,2.4,2.4,0,0,1,3.07,1.88c.4,1.89-.88,3.25-3.5,3.8-3.25.68-6-.37-8.27-3.11Z" transform="translate(-9.1 -7.73)" style="fill:#231815"/><path d="M232.5,114.25l3,1.76a8.25,8.25,0,0,0-1.58,5.33c.2,2,1.24,2.89,2.52,2.77,1.55-.15,2.06-2.23,2.62-4.29.68-2.52,1.81-5.44,4.91-5.74s5.81,2.07,6.21,6.23a10,10,0,0,1-1.63,6.39L245.64,125a7,7,0,0,0,1.23-4.23c-.18-1.87-1.16-2.67-2.33-2.55-1.47.14-1.84,2.07-2.39,4.15-.7,2.6-1.64,5.53-5.1,5.87-3.19.31-6-2-6.46-6.66A11.59,11.59,0,0,1,232.5,114.25Z" transform="translate(-9.1 -7.73)" style="fill:#231815"/><path d="M250,141.49l-.54,3.54-2,0v.12a9,9,0,0,1,1.57,5.92c-.7,4.62-4.8,6.7-10.49,5.83-6.31-.95-9.39-5.28-8.77-9.38a7.44,7.44,0,0,1,2.75-4.44l-3.09-.33-5.81-.89.66-4.32Zm-10.86,11c3.68.56,6-.31,6.47-3.12.2-1.34-.28-2.7-1.46-4.34l-8.6-1.31a5.8,5.8,0,0,0-2.09,3.46C233.11,149.65,235,151.86,239.17,152.49Z" transform="translate(-9.1 -7.73)" style="fill:#231815"/><path d="M237.27,160.6c5.84,2.14,7.76,7.34,6.16,11.71s-6.41,7.1-12.25,5-7.73-7.33-6.13-11.7S231.46,158.48,237.27,160.6Zm-4.55,12.45c3.51,1.29,6.42.6,7.36-2s-.84-5-4.35-6.25-6.39-.59-7.33,2S229.21,171.77,232.72,173.05Z" transform="translate(-9.1 -7.73)" style="fill:#231815"/><path d="M236.94,186.11l-1.77,3.12-3.06-1.35-.06.1c1.46,2.36,1.66,4.74.67,6.48a4.74,4.74,0,0,1-1.37,1.65l-2.93-2.53a6.23,6.23,0,0,0,1.21-1.52c.73-1.29.73-3.36-1.19-5.74l-9.9-5.61,2.16-3.81Z" transform="translate(-9.1 -7.73)" style="fill:#231815"/><path d="M218.45,192.68l7.1,5.36,1.6-2.12,2.62,2-1.58,2.42,3.75,3.48-2.19,2.9-4.06-3.07-2.87,3.8-2.78-2.1,2.87-3.8-7.09-5.35c-1.75-1.33-3.13-1.3-4.21.13a6,6,0,0,0-.83,1.81l-3-1.35a12.19,12.19,0,0,1,1.75-3.45C212.1,189.89,215.24,190.25,218.45,192.68Z" transform="translate(-9.1 -7.73)" style="fill:#231815"/><path d="M220.06,213.31c2.79,2.69,3.59,5.94.53,9.11a9.59,9.59,0,0,1-2.84,2L216,221.56a5.46,5.46,0,0,0,1.72-1.15c1.07-1.12.94-2.39-.62-3.89L202.2,202.16l3-3.15Zm.21-3.28-1.75,2.11-5.42,5.61-2.5-2.42,7.31-7.58Z" transform="translate(-9.1 -7.73)" style="fill:#231815"/><path d="M205,212.85c3.78,4.94,2.61,10.35-1.08,13.18s-9.23,2.55-13-2.39-2.59-10.33,1.1-13.15S201.21,207.94,205,212.85Zm-10.52,8.06c2.27,3,5.09,4,7.26,2.28s2-4.64-.31-7.61-5.07-3.92-7.25-2.26S192.18,217.94,194.45,220.91Z" transform="translate(-9.1 -7.73)" style="fill:#231815"/><path d="M184.59,221.82l10.75,19.25-3.83,2.14-10.85-19.45c-.53-.94-1.14-1-1.54-.82a2.89,2.89,0,0,0-.56.4l-2.07-2.58a6,6,0,0,1,1.84-1.46C181,217.79,183,219,184.59,221.82Z" transform="translate(-9.1 -7.73)" style="fill:#231815"/><path d="M181.19,239.22l-4,1.76-7.5-17.09,4-1.76Zm2.77,5.06a2.72,2.72,0,1,1-3.48-1.18A2.52,2.52,0,0,1,184,244.28Z" transform="translate(-9.1 -7.73)" style="fill:#231815"/><path d="M169.08,234.48c1.64,6-1.48,10.57-6,11.8s-9.51-1.11-11.16-7.1,1.49-10.55,6-11.78S167.44,228.51,169.08,234.48ZM156.29,238c1,3.6,3.24,5.57,5.88,4.85s3.56-3.56,2.57-7.17-3.23-5.55-5.86-4.82S155.3,234.38,156.29,238Z" transform="translate(-9.1 -7.73)" style="fill:#231815"/><path d="M147.1,232.75a2.83,2.83,0,1,1-3.17-2.57A2.85,2.85,0,0,1,147.1,232.75Z" transform="translate(-9.1 -7.73)" style="fill:#231815"/><path d="M130.84,234.26c-7.24,5.93-11.81,9.79-12.13,13.47-.22,2.53,1,4.27,3.63,4.49,1.86.16,3.51-.93,4.92-2.26l2.22,2.6c-2.4,2.19-4.73,3.36-8,3.08-4.6-.4-7.36-3.58-7-8,.37-4.28,4.72-8.35,10-13-1.28,0-2.88,0-4.06-.1l-5.89-.51.32-3.7,16.26,1.41Z" transform="translate(-9.1 -7.73)" style="fill:#231815"/><path d="M109.44,241.72c-2.18,7.87-6.4,11.14-11.23,9.81s-6.77-6.34-4.59-14.19,6.45-11.34,11.29-10S111.62,233.85,109.44,241.72Zm-11.79-3.27c-1.83,6.59-.78,9.14,1.47,9.76s4.46-1,6.29-7.61.84-9.32-1.42-9.95S99.47,231.86,97.65,238.45Z" transform="translate(-9.1 -7.73)" style="fill:#231815"/><path d="M94,227.22c-8.89,2.92-14.55,4.88-16.17,8.2-1.12,2.29-.57,4.35,1.77,5.49,1.68.82,3.61.4,5.4-.33l1.14,3.22c-3,1.18-5.63,1.44-8.59,0-4.15-2-5.58-6-3.62-10,1.89-3.87,7.41-6.1,14-8.5-1.2-.45-2.69-1-3.75-1.56l-5.32-2.6,1.63-3.33,14.67,7.16Z" transform="translate(-9.1 -7.73)" style="fill:#231815"/><path d="M75.5,218.8l-4.35-3.22L61.7,228.33,65.29,231l-1.63,2.21A15.52,15.52,0,0,0,58,231.48l-2.63-1.95L67.64,213l-3.83-2.83,2.13-2.87,11.69,8.66Z" transform="translate(-9.1 -7.73)" style="fill:#231815"/><path d="M49.4,208.27c-6.35,5.14-11.69,5.35-14.84,1.45s-1.82-9.09,4.52-14.22,11.84-5.46,15-1.56S55.76,203.14,49.4,208.27Zm-7.69-9.51c-5.32,4.3-6,7-4.48,8.8s4.22,1.76,9.54-2.54,6.11-7.1,4.63-8.92S47,194.46,41.71,198.76Z" transform="translate(-9.1 -7.73)" style="fill:#231815"/><path d="M26.23,197.74a2.72,2.72,0,1,1,.73-3.6A2.53,2.53,0,0,1,26.23,197.74Zm29.3-12.89-3.22,1a5.22,5.22,0,0,0-.58-1.53c-.86-1.43-2.09-1.24-4-.12L30.89,194.35l-2.25-3.75,16.81-10.12c3.39-2,6.67-2.28,8.95,1.52A8,8,0,0,1,55.53,184.85Z" transform="translate(-9.1 -7.73)" style="fill:#231815"/><path d="M34.06,181.74c-5.74,2.4-10.68-.11-12.47-4.41s-.12-9.57,5.62-12,10.65.13,12.44,4.42S39.77,179.35,34.06,181.74Zm-5.12-12.23c-3.45,1.44-5.11,3.92-4.06,6.45s4,3.07,7.44,1.63,5.09-3.91,4-6.43S32.39,168.07,28.94,169.51Z" transform="translate(-9.1 -7.73)" style="fill:#231815"/><path d="M19.3,164c-1.68-1.72-3.31-2.39-5.45-1.82l-2.73,1L12.85,161A2.56,2.56,0,0,1,14,162.5a2.32,2.32,0,0,1-1.64,3,2.4,2.4,0,0,1-3.16-1.72c-.5-1.87.71-3.29,3.3-4,3.2-.85,6,.06,8.41,2.67Z" transform="translate(-9.1 -7.73)" style="fill:#231815"/><path d="M31.56,153.72l-3-1.61a8.26,8.26,0,0,0,1.31-5.4c-.3-2-1.39-2.82-2.65-2.63-1.55.23-2,2.33-2.41,4.41-.55,2.55-1.52,5.53-4.61,6s-5.9-1.77-6.51-5.9a10,10,0,0,1,1.3-6.47l3,1.59a7.06,7.06,0,0,0-1,4.29c.28,1.85,1.3,2.6,2.46,2.43,1.45-.22,1.73-2.17,2.17-4.27.56-2.64,1.35-5.61,4.79-6.13,3.18-.47,6.1,1.66,6.8,6.32A11.73,11.73,0,0,1,31.56,153.72Z" transform="translate(-9.1 -7.73)" style="fill:#231815"/><path d="M12.66,127.41l.36-3.57,2-.13,0-.12a9.06,9.06,0,0,1-1.88-5.84c.46-4.64,4.45-6.93,10.18-6.36,6.35.63,9.65,4.79,9.24,8.92a7.52,7.52,0,0,1-2.52,4.58l3.1.17,5.85.58L38.59,130ZM23,115.87c-3.71-.37-6,.62-6.3,3.45-.14,1.34.42,2.68,1.68,4.26l8.65.86a5.83,5.83,0,0,0,1.92-3.56C29.14,118.4,27.15,116.29,23,115.87Z" transform="translate(-9.1 -7.73)" style="fill:#231815"/><path d="M24.42,107.66c-5.94-1.83-8.12-6.92-6.75-11.37s6-7.42,12-5.59,8.1,6.91,6.73,11.36S30.34,109.48,24.42,107.66ZM28.32,95c-3.57-1.11-6.43-.27-7.24,2.34s1.09,4.92,4.67,6,6.41.26,7.21-2.36S31.9,96.1,28.32,95Z" transform="translate(-9.1 -7.73)" style="fill:#231815"/><path d="M23.46,82.13l1.61-3.2,3.12,1.19.06-.11c-1.58-2.28-1.9-4.65-1-6.44a4.62,4.62,0,0,1,1.29-1.71l3,2.38a6.52,6.52,0,0,0-1.13,1.57c-.66,1.33-.56,3.39,1.48,5.67l10.18,5.1-2,3.92Z" transform="translate(-9.1 -7.73)" style="fill:#231815"/><path d="M41.56,74.67l-7.36-5-1.49,2.2L30,70l1.46-2.5-3.93-3.29,2-3,4.22,2.85,2.66-3.93,2.89,1.95-2.67,3.94L44,71c1.82,1.23,3.19,1.13,4.19-.35a5.83,5.83,0,0,0,.74-1.85L52,70a12.29,12.29,0,0,1-1.58,3.54C48,77.13,44.89,76.93,41.56,74.67Z" transform="translate(-9.1 -7.73)" style="fill:#231815"/><path d="M38.9,54.13c-2.92-2.54-3.89-5.74-1-9.06a9.26,9.26,0,0,1,2.74-2.15l1.91,2.77a5.31,5.31,0,0,0-1.66,1.24c-1,1.17-.82,2.43.82,3.85L57.31,64.35l-2.88,3.3Zm0,3.29,1.65-2.19,5.11-5.88,2.63,2.28-6.92,7.95Z" transform="translate(-9.1 -7.73)" style="fill:#231815"/><path d="M54,53.81c-4-4.74-3.13-10.21.41-13.22s9.09-3,13.12,1.72,3.11,10.19-.44,13.2S58,58.52,54,53.81Zm10.1-8.59c-2.42-2.85-5.29-3.68-7.37-1.91s-1.73,4.74.7,7.59,5.26,3.66,7.35,1.89S66.53,48.07,64.11,45.22Z" transform="translate(-9.1 -7.73)" style="fill:#231815"/><path d="M73.88,43.83,62.16,25.16l3.71-2.32L77.71,41.69c.57.92,1.19,1,1.57.74a2.69,2.69,0,0,0,.54-.43L82,44.48A6.34,6.34,0,0,1,80.27,46C77.64,47.68,75.61,46.58,73.88,43.83Z" transform="translate(-9.1 -7.73)" style="fill:#231815"/><path d="M73.37,21.36a2.71,2.71,0,0,1,4.83-2.43,2.71,2.71,0,0,1-4.83,2.43Zm3,4.91,3.92-2L88.68,41l-3.92,2Z" transform="translate(-9.1 -7.73)" style="fill:#231815"/><path d="M88.75,30.38c-2-5.91.93-10.64,5.35-12.1s9.55.62,11.5,6.52-.94,10.61-5.35,12.07S90.69,36.25,88.75,30.38Zm12.58-4.17c-1.17-3.55-3.51-5.4-6.11-4.54S91.85,25.41,93,29s3.51,5.37,6.1,4.52S102.51,29.76,101.33,26.21Z" transform="translate(-9.1 -7.73)" style="fill:#231815"/><path d="M110.78,31a2.83,2.83,0,1,1,3.3,2.41A2.84,2.84,0,0,1,110.78,31Z" transform="translate(-9.1 -7.73)" style="fill:#231815"/></g></g></svg>